# File created by Blade
# Date/Time:  Tue Jan 27 19:14:14 2015
#---------------------------------------------------------
:version 1.10
:name HOM
:units
  mass 1.0
  length 1.000000
  angle deg
:documentation
     Acclaim Skeleton File
:root
   axis xyz
   order TX TY TZ RX RY RZ
   position 0.000000 0.000000 0.000000
   orientation 0 0 0
:bonedata
   begin
      id 1
      name Spine_dum
      direction 0.000000 1.000000 0.000000
      length 6.116652
      axis 0.0 0.0 0.0 xyz
   end
   begin
      id 2
      name LeftUpLeg_dum
      direction 1.000000 0.000000 0.000000
      length 4.711765
      axis 0.0 0.0 0.0 xyz
   end
   begin
      id 3
      name RightUpLeg_dum
      direction -1.000000 0.000000 0.000000
      length 4.711765
      axis 0.0 0.0 0.0 xyz
   end
   begin
      id 4
      name Spine
      direction 0.000000 1.000000 0.000000
      length 0.000000
      axis 0.0 0.0 0.0 xyz
      dof rx ry rz
   end
   begin
      id 5
      name Spine_dum1
      direction 0.000000 1.000000 0.000000
      length 15.225563
      axis 0.0 0.0 0.0 xyz
   end
   begin
      id 6
      name Spine_dum2
      direction 0.000000 1.000000 0.000000
      length 8.977654
      axis 0.0 0.0 0.0 xyz
   end
   begin
      id 7
      name Spine_dum3
      direction 0.000000 1.000000 0.000000
      length 8.977654
      axis 0.0 0.0 0.0 xyz
   end
   begin
      id 8
      name Head
      direction 0.000000 1.000000 0.000000
      length 4.527550
      axis 0.0 0.0 0.0 xyz
      dof rx ry rz
   end
   begin
      id 9
      name LeftShoulder
      direction 1.000000 0.000000 0.000000
      length 7.110130
      axis 0.0 0.0 -90.0 xyz
      dof rx ry rz
   end
   begin
      id 10
      name LeftArm
      direction 1.000000 0.000000 0.000000
      length 10.398341
      axis 0.0 0.0 -90.0 xyz
      dof rx ry rz
   end
   begin
      id 11
      name LeftForeArm
      direction 1.000000 0.000000 0.000000
      length 8.888997
      axis 0.0 0.0 -90.0 xyz
      dof ry rz rx
   end
   begin
      id 12
      name LeftHand
      direction 0.000000 0.000000 0.000000
      length 0.000000
      axis 0.0 0.0 -90.0 xyz
      dof rx ry rz
   end
   begin
      id 13
      name LeftHand_dum1
      direction 0.000000 0.000000 0.000000
      length 0.000000
      axis 0.0 0.0 -90.0 xyz
   end
   begin
      id 14
      name LeftHand_dum2
      direction 1.000000 0.000000 0.000000
      length 3.937000
      axis 0.0 0.0 -90.0 xyz
   end
   begin
      id 15
      name LeftHandThumb1
      direction 0.000000 0.000000 1.000000
      length 3.937000
      axis 0.0 0.0 -90.0 xyz
      dof rx rz ry
   end
   begin
      id 16
      name RightShoulder
      direction -1.000000 0.000000 0.000000
      length 7.110130
      axis 0.0 0.0 90.0 xyz
      dof rx ry rz
   end
   begin
      id 17
      name RightArm
      direction -1.000000 0.000000 0.000000
      length 10.398341
      axis 0.0 0.0 90.0 xyz
      dof rx ry rz
   end
   begin
      id 18
      name RightForeArm
      direction -1.000000 0.000000 0.000000
      length 8.888997
      axis 0.0 0.0 90.0 xyz
      dof ry rz rx
   end
   begin
      id 19
      name RightHand
      direction 0.000000 0.000000 0.000000
      length 0.000000
      axis 0.0 0.0 90.0 xyz
      dof rx ry rz
   end
   begin
      id 20
      name RightHand_dum1
      direction 0.000000 0.000000 0.000000
      length 0.000000
      axis 0.0 0.0 90.0 xyz
   end
   begin
      id 21
      name RightHand_dum2
      direction -1.000000 0.000000 0.000000
      length 3.937000
      axis 0.0 0.0 90.0 xyz
   end
   begin
      id 22
      name RightHandThumb1
      direction 0.000000 0.000000 1.000000
      length 3.937000
      axis 0.0 0.0 90.0 xyz
      dof rx rz ry
   end
   begin
      id 23
      name LeftUpLeg
      direction 0.000000 -1.000000 0.000000
      length 15.510451
      axis 0.0 0.0 0.0 xyz
      dof rx ry rz
   end
   begin
      id 24
      name LeftLeg
      direction 0.000000 -1.000000 0.000000
      length 14.858061
      axis 0.0 0.0 0.0 xyz
      dof rx ry rz
   end
   begin
      id 25
      name LeftFoot
      direction 0.000000 -0.258819 0.965926
      length 5.128852
      axis 15.0 0.0 0.0 xyz
      dof rx ry rz
   end
   begin
      id 26
      name LeftToeBase
      direction 0.000000 0.000000 1.000000
      length 2.952750
      axis 0.0 0.0 0.0 xyz
      dof rx ry rz
   end
   begin
      id 27
      name RightUpLeg
      direction 0.000000 -1.000000 0.000000
      length 15.510451
      axis 0.0 0.0 0.0 xyz
      dof rx ry rz
   end
   begin
      id 28
      name RightLeg
      direction 0.000000 -1.000000 0.000000
      length 14.858061
      axis 0.0 0.0 0.0 xyz
      dof rx ry rz
   end
   begin
      id 29
      name RightFoot
      direction 0.000000 -0.258819 0.965926
      length 5.128852
      axis 15.0 0.0 0.0 xyz
      dof rx ry rz
   end
   begin
      id 30
      name RightToeBase
      direction 0.000000 0.000000 1.000000
      length 2.952750
      axis 0.0 0.0 0.0 xyz
      dof rx ry rz
   end
:hierarchy
   begin
      root Spine_dum LeftUpLeg_dum RightUpLeg_dum
      Spine_dum Spine
      LeftUpLeg_dum LeftUpLeg
      RightUpLeg_dum RightUpLeg
      Spine Spine_dum1 Spine_dum2 Spine_dum3
      Spine_dum1 Head
      Spine_dum2 LeftShoulder
      Spine_dum3 RightShoulder
      LeftShoulder LeftArm
      LeftArm LeftForeArm
      LeftForeArm LeftHand
      LeftHand LeftHand_dum1 LeftHand_dum2
      LeftHand_dum1 LeftHandThumb1
      RightShoulder RightArm
      RightArm RightForeArm
      RightForeArm RightHand
      RightHand RightHand_dum1 RightHand_dum2
      RightHand_dum1 RightHandThumb1
      LeftUpLeg LeftLeg
      LeftLeg LeftFoot
      LeftFoot LeftToeBase
      RightUpLeg RightLeg
      RightLeg RightFoot
      RightFoot RightToeBase
   end

# File created by Blade
# Date/Time:  Tue Jan 27 19:14:06 2015
# Frame Rate: 120.000 fps
#------------------------------------------------------
:FULLY-SPECIFIED
:DEGREES
1409
root 4.358606 32.397464 0.929470 -3.878392 16.055800 1.853040
Spine -2.756419 14.611963 -4.012102
Head 12.511373 -23.610591 -4.538564
LeftShoulder -5.781522 -8.949819 23.451712
LeftArm -6.084733 36.483473 -104.289109
LeftForeArm 4.250828 -0.000000 11.363727
LeftHand 10.084716 -0.000000 -7.016603
LeftHandThumb1 -26.253704 0.000000 33.147579
RightShoulder -18.089612 21.644363 -63.470393
RightArm 68.186216 46.757947 71.944020
RightForeArm 22.568930 -0.000000 16.842206
RightHand 20.512496 -0.000000 -7.712948
RightHandThumb1 -24.326973 -0.000000 -32.862282
LeftUpLeg 8.609619 -9.930175 -2.452544
LeftLeg 2.505427 -0.000000 -0.000000
LeftFoot -13.126115 5.977443 -21.239228
LeftToeBase 18.858331 -0.000000 -0.000000
RightUpLeg 13.094611 -6.464306 1.922448
RightLeg -2.416715 -0.000000 0.000000
RightFoot -15.157763 -20.681786 17.475036
RightToeBase 11.511760 -0.000000 -0.000000
1410
root 4.359648 32.397768 0.918226 -3.838538 16.052458 1.859563
Spine -2.747658 14.613249 -4.008862
Head 12.424694 -23.542299 -4.531525
LeftShoulder -5.799171 -8.968307 23.451114
LeftArm -6.106132 36.443995 -104.281555
LeftForeArm 4.138297 -0.000000 11.384807
LeftHand 10.087664 -0.000000 -6.956399
LeftHandThumb1 -26.253704 0.000000 33.147579
RightShoulder -18.102693 21.598169 -63.448803
RightArm 68.007774 46.674756 71.596066
RightForeArm 22.589558 -0.000000 16.801449
RightHand 20.517337 -0.000000 -8.151922
RightHandThumb1 -24.326973 -0.000000 -32.862282
LeftUpLeg 8.606098 -10.074110 -2.474887
LeftLeg 2.406071 -0.000000 -0.000000
LeftFoot -13.122932 6.092410 -21.319818
LeftToeBase 18.925583 -0.000000 -0.000000
RightUpLeg 13.069389 -6.457536 1.913148
RightLeg -2.484766 -0.000000 0.000000
RightFoot -15.117239 -20.686673 17.473483
RightToeBase 11.483385 -0.000000 -0.000000
1411
root 4.359119 32.397426 0.907398 -3.807765 16.059329 1.856893
Spine -2.725151 14.601819 -3.996374
Head 12.296507 -23.496348 -4.483947
LeftShoulder -5.819081 -8.975113 23.460923
LeftArm -6.097881 36.384060 -104.269368
LeftForeArm 4.149547 -0.000000 11.386664
LeftHand 10.048377 -0.000000 -6.913970
LeftHandThumb1 -26.253704 0.000000 33.147579
RightShoulder -18.092134 21.500262 -63.430752
RightArm 67.736491 46.625591 71.116847
RightForeArm 22.594714 -0.000000 16.802750
RightHand 20.513275 0.000000 -8.199075
RightHandThumb1 -24.326973 -0.000000 -32.862282
LeftUpLeg 8.565469 -10.061117 -2.464553
LeftLeg 2.382291 -0.000000 -0.000000
LeftFoot -13.102048 6.077657 -21.304394
LeftToeBase 18.944949 -0.000000 -0.000000
RightUpLeg 13.043652 -6.479046 1.911562
RightLeg -2.529493 -0.000000 0.000000
RightFoot -15.089059 -20.660312 17.469373
RightToeBase 11.524370 -0.000000 -0.000000
1412
root 4.359611 32.398188 0.894988 -3.778700 16.089252 1.860704
Spine -2.692475 14.569124 -3.983577
Head 12.226069 -23.464584 -4.493899
LeftShoulder -5.816495 -8.974094 23.455365
LeftArm -6.058580 36.340439 -104.242180
LeftForeArm 4.197536 -0.000000 11.342845
LeftHand 10.041617 -0.000000 -6.855379
LeftHandThumb1 -26.253704 0.000000 33.147579
RightShoulder -18.104762 21.497280 -63.428820
RightArm 67.385735 46.548775 70.576226
RightForeArm 22.537886 0.000000 16.841288
RightHand 20.426108 -0.000000 -8.093617
RightHandThumb1 -24.326973 -0.000000 -32.862282
LeftUpLeg 8.509561 -10.040095 -2.457597
LeftLeg 2.378171 -0.000000 -0.000000
LeftFoot -13.052221 6.034442 -21.284440
LeftToeBase 18.932726 -0.000000 -0.000000
RightUpLeg 13.025154 -6.450002 1.913851
RightLeg -2.580766 -0.000000 0.000000
RightFoot -15.070313 -20.701806 17.486823
RightToeBase 11.531113 -0.000000 -0.000000
1413
root 4.361097 32.398813 0.882274 -3.754861 16.133226 1.860276
Spine -2.648287 14.528081 -3.954516
Head 12.129031 -23.421311 -4.488390
LeftShoulder -5.809229 -9.007605 23.442983
LeftArm -6.044366 36.316182 -104.242511
LeftForeArm 4.288279 -0.000000 11.259410
LeftHand 10.081629 -0.000000 -6.823674
LeftHandThumb1 -26.253704 0.000000 33.147579
RightShoulder -18.124261 21.437963 -63.421601
RightArm 67.317589 46.539859 70.375065
RightForeArm 22.455004 -0.000000 16.903759
RightHand 20.398192 -0.000000 -7.911606
RightHandThumb1 -24.326973 -0.000000 -32.862282
LeftUpLeg 8.448798 -10.021672 -2.449443
LeftLeg 2.394871 -0.000000 -0.000000
LeftFoot -13.028196 5.980339 -21.276649
LeftToeBase 18.967026 -0.000000 -0.000000
RightUpLeg 13.010663 -6.436449 1.917568
RightLeg -2.634286 -0.000000 0.000000
RightFoot -15.053405 -20.757209 17.507745
RightToeBase 11.538800 -0.000000 -0.000000
